PathFileType	4	(X/Y/Z)	C:/Users/beibeiliu/ov580/test_trc/User3\sequence.14_training_dense_left.trc
DataRate	CameraRate	NumFrames	NumMarkers	Units	OrigDataRate	OrigDataStartFrame	OrigNumFrames
120	120	17	19	mm	120	93	246
Frame#	Time	ThumbCMC			ThumbMCP			ThumbIP			ThumbTip			IndexMCP			IndexPIP			IndexTip			MiddleMCP			MiddlePIP			MiddleTip			RingMCP			RingPIP			RingTip			PinkyMCP			PinkyPIP			PinkyTip			BackHand1			BackHand2			BackHand3	
		X0	Y0	Z0	X1	Y1	Z1	X2	Y2	Z2	X3	Y3	Z3	X4	Y4	Z4	X5	Y5	Z5	X6	Y6	Z6	X7	Y7	Z7	X8	Y8	Z8	X9	Y9	Z9	X10	Y10	Z10	X11	Y11	Z11	X12	Y12	Z12	X13	Y13	Z13	X14	Y14	Z14	X15	Y15	Z15	X16	Y16	Z16	X17	Y17	Z17	X18	Y18	Z18	
92	0.766667	-241.523	0.932443	-8.26828	-235.837	20.1109	-27.0487	-232.466	40.7634	-52.8276	-221.579	53.7349	-66.763	-195.781	-24.5277	-69.1677	-183.279	-17.9196	-96.5629	-168.374	-8.40003	-112.314	-177.044	-47.4612	-60.6849	-157.604	-46.0489	-84.5689	-133.579	-36.8439	-108.237	-161.402	-54.1391	-41.6863	-139.541	-55.5078	-58.426	-119.096	-49.9381	-72.2951	-151.613	-54.4959	-14.0058	-129.949	-54.4412	-22.2159	-105.03	-49.116	-30.826	-198.158	-55.5767	-5.18219	-217.756	-54.9351	18.8405	-227.433	-37.8928	-8.87669	
93	0.775	-240.842	-0.616552	-8.13675	-236.135	20.525	-31.2712	-232.671	38.7045	-49.5462	-228.476	55.6906	-66.0288	-200.18	-23.8519	-69.951	-187.301	-17.8257	-95.7195	-170.228	-5.97237	-116.704	-177.298	-46.2578	-65.5932	-160.45	-45.9567	-85.389	-133.842	-38.8579	-105.088	-159.731	-54.1731	-43.2851	-141.948	-54.597	-57.4799	-117.771	-47.3245	-75.1929	-153.064	-53.2211	-17.4841	-129.704	-53.5499	-24.3646	-104.659	-47.0769	-30.7065	-201.639	-54.9265	-8.68739	-216.995	-53.5817	15.8761	-229.721	-38.5324	-11.8166	
94	0.783333	-240.045	-2.92287	-7.45473	-239.67	22.1608	-30.0748	-234.042	41.008	-53.9723	-226.626	53.965	-66.0325	-199.451	-22.8752	-74.0325	-185.617	-19.3109	-96.2102	-172.137	-7.31646	-114.939	-179.491	-46.234	-66.6953	-161.069	-45.4859	-89.0137	-133.238	-39.6705	-107.325	-162.199	-53.2576	-43.7986	-144.058	-53.7791	-59.5717	-115.415	-48.8247	-73.8932	-152.78	-52.5201	-17.8788	-130.769	-53.9206	-19.1534	-105.341	-49.8147	-29.5565	-201.812	-52.7167	-7.64574	-216.933	-56.4062	16.3783	-228.071	-39.2214	-11.3732	
95	0.791667	-240.6	-3.03082	-8.23572	-240.181	20.5586	-27.9512	-232.412	37.3064	-53.2068	-229.246	55.2904	-65.7213	-198.74	-24.9433	-74.8647	-184.9	-19.3528	-98.0167	-168.438	-7.59039	-117.434	-177.44	-48.8918	-63.7412	-163.633	-47.1137	-85.0519	-134.853	-40.3215	-105.915	-161.267	-53.9611	-42.2419	-143.889	-54.61	-56.6008	-119.451	-49.0461	-71.1041	-153.498	-53.3193	-12.7538	-126.602	-52.6001	-22.9212	-107.392	-48.0408	-32.5039	-199.22	-57.148	-8.67616	-216.875	-54.4107	17.2287	-232.147	-38.184	-14.8242	
96	0.8	-240.843	-2.16438	-9.73704	-237.348	18.8294	-30.7572	-234.832	40.8336	-55.3281	-225.924	53.7762	-68.4865	-200.482	-24.91	-72.2259	-189.917	-17.2182	-99.2688	-171.286	-8.13876	-118.705	-179.389	-47.6622	-60.4517	-160.063	-48.8553	-85.1008	-138.537	-42.009	-105.443	-164.885	-53.5234	-44.799	-143.486	-55.1803	-60.5406	-119.471	-49.1785	-72.3129	-151.91	-53.8019	-17.8349	-129.473	-52.0411	-24.8297	-107.542	-48.8131	-29.4276	-199.532	-57.0002	-7.26883	-215.583	-59.006	16.6181	-233.041	-36.3055	-11.7346	
97	0.808333	-240.756	-2.21867	-8.40882	-238.633	20.166	-29.2201	-232.824	37.9529	-50.1117	-224.832	55.1639	-70.1003	-203.905	-25.2917	-70.4427	-190.02	-17.5692	-100.327	-173.694	-7.43288	-119.555	-178.979	-49.136	-60.3566	-161.04	-48.26	-87.3544	-139.637	-41.3429	-108.447	-165.915	-54.3599	-44.3671	-143.547	-57.1405	-58.0868	-119.804	-51.1881	-72.6206	-153.675	-54.706	-17.6895	-131.027	-53.6294	-27.1565	-108.06	-51.1336	-32.6093	-203.772	-56.5167	-9.26897	-217.835	-56.5344	20.8617	-230.093	-38.6134	-13.1652	
98	0.816667	-244.132	0.293056	-9.23467	-241.027	23.8135	-28.4541	-232.106	41.5424	-53.5544	-221.286	53.7564	-67.0525	-202.31	-26.23	-70.5108	-189.975	-17.7111	-99.3689	-175.92	-9.36435	-117.889	-181.635	-49.2287	-62.5158	-166.443	-48.5688	-85.5637	-138.834	-42.5252	-109.699	-166.761	-56.1985	-44.1265	-146.625	-59.0091	-57.6997	-124.399	-53.3213	-73.6372	-155.878	-55.7395	-18.655	-133.764	-55.3891	-28.0848	-109.252	-54.9251	-34.3335	-203.891	-56.8562	-9.02418	-219.222	-56.8593	20.5554	-235.083	-35.1742	-10.5286	
99	0.825	-237.888	1.55616	-10.6019	-233.743	25.4301	-29.9869	-227.612	44.8013	-49.0853	-216.376	58.3174	-62.983	-202.594	-25.2057	-73.8867	-193.159	-18.7977	-97.2633	-175.666	-8.98624	-118.454	-185.996	-50.2829	-63.202	-167.81	-49.7085	-90.0873	-142.166	-44.0088	-112.477	-169.2	-59.5788	-46.599	-151.663	-61.0478	-63.5146	-128.119	-56.4371	-78.3677	-162.37	-58.9976	-20.8062	-139.462	-61.1644	-28.4387	-117.273	-59.8344	-35.8943	-208.343	-59.2648	-8.38759	-222.72	-56.1629	15.7237	-236.688	-36.7087	-10.3957	
100	0.833333	-234.636	6.11524	-3.83167	-226.044	31.0045	-26.6042	-216.601	48.3338	-44.4073	-206.46	63.2644	-58.7567	-205.062	-20.8022	-72.6365	-193.37	-15.8969	-96.8233	-173.834	-8.48081	-119.548	-188.723	-50.6244	-69.7397	-173.848	-50.8301	-91.6003	-148.013	-44.4619	-115.516	-177.578	-59.6582	-48.8579	-158.578	-63.1575	-67.2389	-131.401	-62.6342	-82.6053	-163.479	-66.1557	-22.3795	-144.79	-67.5307	-33.7727	-121.98	-69.4526	-40.7851	-212.021	-58.1158	-11.7026	-228.394	-52.6626	16.3394	-236.471	-28.8185	-12.7361	
101	0.841667	-226.976	13.2634	-6.89474	-213.607	32.2579	-20.5891	-201.845	50.5896	-39.8724	-190.997	66.0624	-53.3749	-204.697	-14.2932	-73.2091	-193.549	-8.62326	-96.6553	-172.009	-5.20549	-120.356	-194.316	-44.0915	-68.2852	-175.042	-48.1542	-95.7038	-152.029	-46.9791	-114.854	-182.147	-57.8898	-53.9728	-160.586	-64.9502	-72.5766	-138.772	-64.6552	-86.6054	-169.624	-68.1789	-27.4392	-152.09	-70.2216	-38.7466	-126.747	-75.8886	-46.5205	-217.252	-53.8586	-14.0007	-227.38	-51.2477	11.5549	-236.208	-23.0285	-16.4814	
102	0.85	-219.133	21.35	-2.28042	-202.561	41.2475	-18.2064	-187.665	56.7513	-33.0768	-173.166	70.0783	-46.4882	-203.961	-3.58078	-74.4208	-191.826	0.968972	-97.4068	-174.097	1.40518	-116.134	-197.663	-38.7846	-71.6011	-183.786	-37.4508	-97.8502	-158.851	-41.2546	-118.675	-187.745	-54.6934	-55.0172	-170.616	-59.0827	-77.8735	-147.903	-64.6246	-92.2754	-179.361	-64.4131	-32.6125	-159.14	-71.0176	-47.6936	-136.54	-79.5559	-54.7165	-219.83	-47.3586	-15.5134	-231.648	-40.9939	9.50347	-233.58	-15.2781	-13.36	
103	0.858333	-207.392	24.2289	4.92998	-189.447	42.7159	-9.11979	-172.087	61.7002	-24.2668	-156.081	72.3469	-38.3593	-202.422	5.14245	-69.7628	-189.868	10.6256	-95.3564	-171.59	13.6624	-115.799	-202.602	-26.1351	-71.5318	-188.394	-29.7006	-99.2424	-168.793	-31.3442	-119.678	-197.078	-42.9379	-59.718	-183.187	-49.906	-81.8669	-159.661	-57.4234	-99.9847	-189.339	-60.9185	-39.5815	-172.044	-67.9983	-55.8181	-151.686	-78.0216	-68.0241	-222.729	-36.6242	-15.7424	-232.999	-32.5069	10.6103	-229.825	-3.928	-8.69845	
104	0.866667	-198.12	27.7179	12.7208	-175.319	42.5521	-4.65249	-155.172	59.7178	-17.8922	-137.819	69.522	-33.1297	-199.666	17.1674	-65.663	-186.695	20.8609	-92.7505	-169.368	21.1099	-114.504	-206.409	-15.8901	-70.3375	-195.749	-16.6886	-98.0143	-173.811	-21.5217	-125.203	-204.294	-35.1865	-63.791	-194.718	-39.2778	-83.7829	-173.337	-47.1191	-105.328	-199.6	-52.3705	-40.5414	-185.992	-61.1611	-60.8465	-170.2	-74.2733	-75.0249	-228.01	-28.0204	-15.1185	-237.059	-26.4994	16.8446	-224.492	8.8776	-1.54605	
105	0.875	-187.849	27.6535	14.0194	-163.051	39.646	2.65969	-141.968	50.5055	-14.672	-125.122	57.7638	-22.5561	-193.486	28.0106	-60.0107	-184.469	30.0956	-85.1615	-165.367	32.6957	-110.129	-207.9	1.98777	-68.3522	-200.242	-1.12214	-95.7016	-181.583	-6.48791	-124.493	-210.058	-21.686	-58.8663	-200.209	-26.0252	-88.3349	-184.102	-36.6545	-111.189	-208.64	-46.3955	-45.7273	-199.34	-53.38	-65.2261	-185.682	-59.8764	-82.2791	-227.913	-13.0384	-12.2566	-235.337	-14.1491	18.2234	-218.893	12.7378	-0.85588	
106	0.883333	-176.351	28.512	20.5206	-151.186	36.0174	9.92354	-128.761	44.0424	-9.39688	-109.324	48.2552	-24.2991	-186.985	34.7103	-58.7749	-176.246	40.1332	-82.4554	-160.707	38.0331	-104.704	-208.997	11.8129	-68.8841	-201.225	11.2674	-94.5174	-186.433	2.39819	-125.269	-213.011	-10.8365	-59.4278	-207.731	-17.4624	-85.7191	-196.153	-26.7503	-109.314	-214.3	-33.9315	-51.6164	-209.562	-45.5247	-68.9871	-197.835	-55.5048	-90.7116	-227.951	-7.32385	-12.4015	-233.272	-8.33156	20.9605	-210.79	21.7193	6.61337	
107	0.891667	-171.482	21.4768	23.3599	-143.828	29.554	6.84584	-122.429	34.4534	-6.02232	-101.968	38.5949	-19.9781	-181.191	37.4012	-51.238	-170.835	42.9474	-78.0399	-156.728	39.5069	-102.052	-206.776	18.6414	-66.1884	-199.319	20.0217	-94.5124	-188.739	12.1719	-120.706	-215.481	-4.37669	-60.3391	-213.841	-9.01476	-84.9389	-200.599	-14.9882	-110.743	-220.75	-26.7878	-50.5623	-214.834	-35.1573	-68.7345	-206.674	-44.7173	-90.222	-228.74	-1.09285	-9.86206	-231.406	-3.38264	22.3543	-207.045	24.699	8.16435	
108	0.9	-167.39	17.7133	24.3459	-141.846	20.7432	7.89035	-116.533	26.9204	-4.49612	-98.5334	26.6359	-16.2019	-176.035	37.138	-49.8892	-164.889	43.2923	-75.5511	-147.671	41.7092	-99.9474	-202.545	24.2795	-64.1706	-196.788	23.8015	-94.1068	-185.096	17.6405	-122.571	-216.575	1.01157	-62.1018	-215.222	-2.11028	-84.412	-203.934	-10.6646	-110.999	-224.03	-23.2471	-50.2752	-220.791	-32.6226	-71.9984	-214.965	-37.7571	-89.8447	-225.753	5.42743	-7.93696	-230.091	2.21244	21.3739	-201.869	22.3623	8.28491	
